# xmcd CD database file generated by LOLA_Freedb v0.9beta0
# 
# Track frame offsets:
#      150
#      14931
#      30874
#      44324
#      57066
#      68472
#      86050
#      93391
#      107697
#      119976
#      130616
# 
# Disc length: 1877 seconds
# 
# Revision: 0 
# Processed by: cddbd v1.5.1PL2 Copyright (c) Steve Scherf et al.
# Submitted via: LOLA_Freedb v0.9beta0
# 
DISCID=8d07530b
DTITLE=diverse - Grease
DYEAR=1978
DGENRE=
TTITLE0=Grease
TTITLE1=Summer nights
TTITLE2=Hopelessly devoted to you
TTITLE3=You're the one that I want
TTITLE4=Sandy
TTITLE5=Beauty school drop-out
TTITLE6=Look at me, I'm Sandra Dee
TTITLE7=Grease lightnin'
TTITLE8=It's raining on prom night
TTITLE9=Alone at the drive-in movie
TTITLE10=Blue moon
EXTD=
EXTT0=
EXTT1=
EXTT2=
EXTT3=
EXTT4=
EXTT5=
EXTT6=
EXTT7=
EXTT8=
EXTT9=
EXTT10=
PLAYORDER=
